<svg width="24" height="24" viewBox="0 0 24 24" fill="none" xmlns="http://www.w3.org/2000/svg">
<path d="M20.8771 17.275L23.0769 17.2747V12.9042L19.3846 8.83517H15.6923V17.2747M20.8771 17.275C20.66 16.6603 20.0737 16.2198 19.3846 16.2198M20.8771 17.275C20.9354 17.4399 20.9671 17.6174 20.9671 17.8022M19.3846 16.2198C18.6955 16.2198 18.1093 16.6603 17.8922 17.275M19.3846 16.2198C20.2586 16.2198 20.9671 16.9283 20.9671 17.8022M19.3846 16.2198C18.5107 16.2198 17.8022 16.9283 17.8022 17.8022M17.8922 17.275L15.6923 17.2747M17.8922 17.275C17.8339 17.4399 17.8022 17.6174 17.8022 17.8022M15.6923 17.2747V4.61539H0.923096M15.6923 17.2747L8.21778 17.275M8.21778 17.275C8.00063 16.6603 7.4144 16.2198 6.72529 16.2198M8.21778 17.275C8.27602 17.4399 8.30771 17.6174 8.30771 17.8022M6.72529 16.2198C6.03618 16.2198 5.44995 16.6603 5.23281 17.275M6.72529 16.2198C7.59924 16.2198 8.30771 16.9283 8.30771 17.8022M6.72529 16.2198C5.85135 16.2198 5.14288 16.9283 5.14288 17.8022M5.23281 17.275L4.08793 17.2747M5.23281 17.275C5.17457 17.4399 5.14288 17.6174 5.14288 17.8022M20.9671 17.8022C20.9671 18.6761 20.2586 19.3846 19.3846 19.3846C18.5107 19.3846 17.8022 18.6761 17.8022 17.8022M8.30771 17.8022C8.30771 18.6761 7.59924 19.3846 6.72529 19.3846C5.85135 19.3846 5.14288 18.6761 5.14288 17.8022M4.6154 10.9451H3.03299M4.6154 14.1099H4.08793M4.6154 7.78022H1.97804" stroke="#F9F9F9" stroke-width="1.5" stroke-linecap="round"/>
</svg>
