<svg width="223" height="70" viewBox="0 0 223 70" fill="none" xmlns="http://www.w3.org/2000/svg">
<ellipse cx="119" cy="24.2892" rx="3.44987" ry="3.44987" fill="#1E1E1E"/>
<path d="M8.87793 3.88373V40.8115H38.4053V44.5224H4.97852V3.88373H8.87793Z" fill="#1E1E1E" stroke="#1E1E1E" stroke-width="2"/>
<path d="M180.684 3.88373L180.977 4.36224L194.828 27.037L208.799 4.35931L209.092 3.88373H213.62L212.714 5.3974L196.989 31.6552V44.5224H192.784V31.6572L176.938 5.40033L176.023 3.88373H180.684Z" fill="#1E1E1E" stroke="#1E1E1E" stroke-width="2"/>
<path d="M142.59 3.88373V25.8105L158.178 4.29681L158.478 3.88373H163.155L162.003 5.47064L145.051 28.8329L167.296 42.6728L170.269 44.5224H163.669L163.429 44.3759L142.59 31.6689V44.5224H138.507V3.88373H142.59Z" fill="#1E1E1E" stroke="#1E1E1E" stroke-width="2"/>
<path d="M130.962 17.8535L129.151 15.3505C127.592 13.1939 125.644 11.4671 123.299 10.166L122.824 9.91107C120.272 8.5872 117.551 7.92572 114.646 7.92572C111.442 7.92575 108.399 8.59452 105.51 9.93158L105.509 9.9306C102.708 11.2456 100.488 13.2292 98.834 15.8984L98.8311 15.9033C97.1488 18.5823 96.3496 21.1046 96.3496 23.4853V24.165C96.5475 27.5045 97.4215 30.3196 98.9385 32.6464C100.512 34.9607 102.669 36.8584 105.438 38.3339H105.437C108.229 39.8008 111.21 40.5329 114.394 40.5341C117.22 40.4986 119.975 39.8375 122.666 38.537L123.162 38.289C125.613 37.0192 127.605 35.328 129.156 33.2158L130.962 30.7558V37.457L130.694 37.7441C128.719 39.8724 126.339 41.5506 123.567 42.7802L123.557 42.7851C120.77 43.9825 117.776 44.577 114.586 44.5771C110.804 44.5771 107.268 43.7853 103.992 42.1972L103.34 41.8691C100.103 40.1766 97.4862 37.8993 95.5088 35.039L95.1211 34.4589C93.0994 31.3193 92.083 27.8936 92.083 24.2031C92.083 20.5122 93.1002 17.1024 95.125 13.997L95.5107 13.4247C97.4828 10.6023 100.074 8.34468 103.267 6.65326L103.912 6.31732C107.155 4.69288 110.677 3.88373 114.463 3.88373C117.731 3.88373 120.767 4.47685 123.557 5.67572H123.556C126.337 6.83393 128.723 8.49814 130.701 10.6679L130.962 10.954V17.8535Z" fill="#1E1E1E" stroke="#1E1E1E" stroke-width="2"/>
<path d="M47.5825 3.88373V23.8163C47.5825 26.6345 48.3606 29.402 49.9497 32.1308L50.2622 32.6328C51.8537 35.11 53.8692 37.1506 56.313 38.7626C58.9479 40.4374 61.6215 41.2529 64.3481 41.2529C67.0758 41.2528 69.7282 40.4362 72.3208 38.7626L72.3267 38.7597L72.8169 38.4374C75.2381 36.8003 77.2128 34.7191 78.7466 32.1855C80.3774 29.4547 81.1753 26.688 81.1753 23.872V3.88373H84.9517V23.872C84.9516 27.6166 84.0059 31.1017 82.1196 34.3095L82.1206 34.3105C80.2785 37.4757 77.7676 40.0082 74.6011 41.8974L74.5981 41.8984C71.4603 43.7574 68.0372 44.6874 64.3481 44.6874C60.6592 44.6874 57.2173 43.7574 54.0415 41.9013L54.0356 41.8984L54.0288 41.8945C51.101 40.1237 48.7154 37.7897 46.8794 34.9033L46.52 34.3193L46.5122 34.3056C44.6668 31.096 43.7446 27.5932 43.7446 23.8163V3.88373H47.5825Z" fill="#1E1E1E" stroke="#1E1E1E" stroke-width="2"/>
<path d="M10.5202 60.8366C11.7142 61.3251 12.4031 62.0782 12.4031 62.9128C12.4031 64.3376 10.3594 65.4775 7.83355 65.4775C5.95061 65.4775 4.29729 64.8465 3.60841 63.8491C3.60841 63.8287 3.60841 63.8287 3.60841 63.8287L4.41211 63.5031H4.43507C4.96321 64.1951 6.34097 64.6633 7.83355 64.6633C9.85427 64.6633 11.4617 63.8694 11.4617 62.9128C11.4617 62.4243 11.0254 61.9765 10.2446 61.6304L5.44543 59.7578C4.25137 59.2693 3.58545 58.4958 3.58545 57.6816C3.58545 56.2568 5.62913 55.0966 8.13206 55.0966C10.015 55.0966 11.6913 55.748 12.3802 56.725V56.7453C12.3802 56.7453 12.3802 56.7657 12.3572 56.7657L11.5765 57.0914C11.5535 57.0914 11.5535 57.0914 11.5535 57.071C11.0254 56.3993 9.6476 55.9312 8.13206 55.9312C6.13431 55.9312 4.50396 56.7046 4.50396 57.6816C4.50396 58.1702 4.94025 58.618 5.74394 58.964L10.5202 60.8366Z" fill="#1E1E1E"/>
<path d="M15.8423 55.3002C15.8653 55.3002 15.8653 55.3002 15.8653 55.3205V65.2739C15.8653 65.2739 15.8653 65.2943 15.8423 65.2943H14.9697C14.9468 65.2943 14.9468 65.2739 14.9468 65.2739V55.3205C14.9468 55.3002 14.9468 55.3002 14.9697 55.3002H15.8423ZM15.406 51.1885C15.8653 51.1885 16.2327 51.5142 16.2327 51.9213C16.2327 52.3284 15.8653 52.6744 15.406 52.6744C14.9468 52.6744 14.5794 52.3284 14.5794 51.9213C14.5794 51.5142 14.9468 51.1885 15.406 51.1885Z" fill="#1E1E1E"/>
<path d="M32.1589 55.0763C34.7078 55.0763 36.7974 57.0099 36.7974 59.3914V65.2739L36.7744 65.2943H35.8789L35.8559 65.2739V59.3914C35.8559 57.4374 34.2256 55.9108 32.1589 55.9108C30.0693 55.9108 28.462 57.4374 28.462 59.3914V65.2739L28.439 65.2943H27.5434C27.5205 65.2943 27.5205 65.2739 27.5205 65.2739V59.3914C27.5205 57.4374 25.8901 55.9108 23.8235 55.9108C21.7339 55.9108 20.1035 57.4374 20.1035 59.3914V65.2739C20.1035 65.2739 20.1035 65.2943 20.0806 65.2943H19.208C19.185 65.2943 19.185 65.2739 19.185 65.2739V55.3205C19.185 55.3002 19.185 55.3002 19.208 55.3002H20.0806C20.1035 55.3002 20.1035 55.3002 20.1035 55.3205V56.786C20.9531 55.748 22.3079 55.0763 23.8235 55.0763C25.6375 55.0763 27.222 56.0736 27.9797 57.4985C28.7375 56.0736 30.3219 55.0763 32.1589 55.0763Z" fill="#1E1E1E"/>
<path d="M45.8056 55.0966C49.0204 55.0966 51.6611 57.4374 51.6611 60.287C51.6611 63.157 49.0204 65.4775 45.8056 65.4775C43.739 65.4775 41.9249 64.5411 40.8686 63.096V69.5484C40.8686 69.5484 40.8686 69.5687 40.8457 69.5687H39.9731C39.9501 69.5687 39.9501 69.5484 39.9501 69.5484V55.3205C39.9501 55.3002 39.9501 55.3002 39.9731 55.3002H40.8457C40.8686 55.3002 40.8686 55.3002 40.8686 55.3205V57.4781C41.9249 56.0533 43.739 55.0966 45.8056 55.0966ZM40.8686 60.2667V60.3277C40.8916 62.7092 43.096 64.6633 45.8056 64.6633C48.5152 64.6633 50.7196 62.6889 50.7196 60.287C50.7196 57.8852 48.5152 55.9312 45.8056 55.9312C43.096 55.9312 40.8916 57.8648 40.8686 60.2667Z" fill="#1E1E1E"/>
<path d="M55.2871 51.0257C55.31 51.0257 55.31 51.0257 55.31 51.0461V65.2739C55.31 65.2739 55.31 65.2943 55.2871 65.2943H54.4145C54.3915 65.2943 54.3915 65.2739 54.3915 65.2739V51.0461C54.3915 51.0257 54.3915 51.0257 54.4145 51.0257H55.2871Z" fill="#1E1E1E"/>
<path d="M69.3533 59.7375C69.3763 59.9003 69.3993 60.1038 69.3993 60.287V60.5313C69.3993 60.5313 69.3763 60.5516 69.3533 60.5516H58.9742C59.112 62.8517 61.2705 64.6633 63.8882 64.6633C65.1971 64.6633 66.4371 64.1951 67.3556 63.3809C67.3785 63.3606 67.3785 63.3606 67.4015 63.3809L68.0215 63.9305V63.9509C68.0215 63.9509 68.0215 63.9509 68.0215 63.9712C66.9193 64.9482 65.4497 65.4775 63.8882 65.4775C60.6505 65.4775 58.0327 63.157 58.0327 60.287C58.0327 57.4374 60.6505 55.0966 63.8882 55.0966C65.3349 55.0966 66.6437 55.5648 67.6541 56.44C68.6185 57.2746 69.2155 58.4551 69.3533 59.7375ZM68.4119 59.7171C68.1363 57.4781 66.2763 55.9312 63.8882 55.9312C61.4082 55.9312 59.3186 57.5595 58.9971 59.7171H68.4119Z" fill="#1E1E1E"/>
<path d="M72.1555 63.9916C72.6147 63.9916 72.9821 64.3376 72.9821 64.7447C72.9821 65.1518 72.6147 65.4775 72.1555 65.4775C71.6962 65.4775 71.3288 65.1518 71.3288 64.7447C71.3288 64.3376 71.6962 63.9916 72.1555 63.9916Z" fill="#1E1E1E"/>
<path d="M87.0161 60.6053C88.1965 61.0891 88.8774 61.835 88.8774 62.6616C88.8774 64.0728 86.8572 65.2018 84.3604 65.2018C82.4991 65.2018 80.8648 64.5768 80.1838 63.589C80.1838 63.5688 80.1838 63.5688 80.1838 63.5688L80.9783 63.2463H81.001C81.5231 63.9317 82.885 64.3954 84.3604 64.3954C86.3579 64.3954 87.9468 63.6092 87.9468 62.6616C87.9468 62.1778 87.5155 61.7342 86.7437 61.3915L81.9997 59.5368C80.8194 59.0529 80.1611 58.2868 80.1611 57.4804C80.1611 56.0692 82.1813 54.9201 84.6555 54.9201C86.5168 54.9201 88.1738 55.5652 88.8547 56.5329V56.5531C88.8547 56.5531 88.8547 56.5732 88.832 56.5732L88.0603 56.8958C88.0376 56.8958 88.0376 56.8958 88.0376 56.8756C87.5155 56.2103 86.1536 55.7466 84.6555 55.7466C82.6807 55.7466 81.0691 56.5127 81.0691 57.4804C81.0691 57.9643 81.5004 58.4078 82.2948 58.7505L87.0161 60.6053Z" fill="#1E1E1E"/>
<path d="M97.5848 64.3349V64.3551C96.972 64.8994 96.1548 65.2018 95.2923 65.2018C93.4764 65.2018 92.0237 63.9116 92.0237 62.3189V55.9482H90.639C90.6163 55.9482 90.6163 55.9281 90.6163 55.9281V55.1418C90.6163 55.1217 90.6163 55.1217 90.639 55.1217H92.0237V52.6016C92.0237 52.6016 92.0237 52.5815 92.0464 52.5815L92.9316 52.3194C92.9543 52.3396 92.9543 52.3396 92.9543 52.3396V55.1217H95.9051C95.9051 55.1217 95.9278 55.1217 95.9278 55.1418V55.9281L95.9051 55.9482H92.9543V62.3189C92.9543 63.4479 93.9984 64.3752 95.2923 64.3752C95.9051 64.3752 96.4953 64.1736 96.9266 63.7704C96.9493 63.7704 96.9493 63.7704 96.972 63.7704L97.5848 64.3349Z" fill="#1E1E1E"/>
<path d="M106.49 55.162H106.512V55.1822L106.126 55.8878C106.104 55.9079 106.104 55.9079 106.081 55.9079C105.672 55.787 105.241 55.7265 104.787 55.7265C102.517 55.7265 100.679 57.2788 100.679 59.1739V65.0002C100.679 65.0002 100.679 65.0204 100.656 65.0204H99.7935C99.7708 65.0204 99.7708 65.0002 99.7708 65.0002V55.1418C99.7708 55.1217 99.7708 55.1217 99.7935 55.1217H100.656C100.679 55.1217 100.679 55.1217 100.679 55.1418V56.7143C101.609 55.6055 103.108 54.8999 104.787 54.8999C105.377 54.8999 105.945 54.9806 106.49 55.162Z" fill="#1E1E1E"/>
<path d="M112.705 54.9201C115.883 54.9201 118.493 57.2385 118.493 60.0609C118.493 62.9035 115.883 65.2018 112.705 65.2018C109.504 65.2018 106.917 62.9035 106.917 60.0609C106.917 57.2385 109.504 54.9201 112.705 54.9201ZM117.562 60.0609C117.562 57.682 115.383 55.7466 112.705 55.7466C110.004 55.7466 107.825 57.682 107.825 60.0609C107.825 62.4399 110.004 64.3954 112.705 64.3954C115.383 64.3954 117.562 62.4399 117.562 60.0609Z" fill="#1E1E1E"/>
<path d="M126.2 54.8999C128.969 54.8999 131.217 56.8151 131.217 59.1739V65.0002C131.217 65.0002 131.217 65.0204 131.194 65.0204H130.331C130.309 65.0204 130.309 65.0002 130.309 65.0002V59.1739C130.309 57.2788 128.47 55.7265 126.2 55.7265C123.93 55.7265 122.092 57.2788 122.092 59.1739V65.0002C122.092 65.0002 122.092 65.0204 122.069 65.0204H121.207C121.184 65.0204 121.184 65.0002 121.184 65.0002V55.1418C121.184 55.1217 121.184 55.1217 121.207 55.1217H122.069C122.092 55.1217 122.092 55.1217 122.092 55.1418V56.7143C123.022 55.6055 124.498 54.8999 126.2 54.8999Z" fill="#1E1E1E"/>
<path d="M145.27 55.1217C145.27 55.1217 145.293 55.1217 145.293 55.1418V64.8591C145.293 67.6815 142.682 70 139.504 70C137.938 70 136.486 69.4556 135.396 68.4879V68.4678L136.032 67.9033H136.054C136.985 68.7299 138.188 69.1734 139.504 69.1734C142.183 69.1734 144.362 67.238 144.362 64.8591V62.8431C143.318 64.2744 141.525 65.2018 139.504 65.2018C136.304 65.2018 133.716 62.9035 133.716 60.0609C133.716 57.2385 136.304 54.9201 139.504 54.9201C141.525 54.9201 143.318 55.8676 144.362 57.2788V55.1418C144.362 55.1217 144.362 55.1217 144.385 55.1217H145.27ZM144.362 60.1013V60.0408C144.339 57.6619 142.16 55.7466 139.504 55.7466C136.803 55.7466 134.624 57.682 134.624 60.0609C134.624 62.4399 136.803 64.3954 139.504 64.3954C142.16 64.3954 144.339 62.46 144.362 60.1013Z" fill="#1E1E1E"/>
<path d="M148.741 63.7301C149.195 63.7301 149.558 64.0728 149.558 64.476C149.558 64.8793 149.195 65.2018 148.741 65.2018C148.287 65.2018 147.924 64.8793 147.924 64.476C147.924 64.0728 148.287 63.7301 148.741 63.7301Z" fill="#1E1E1E"/>
<path d="M164.06 54.6031C167.292 54.6031 169.947 56.9081 169.947 59.7141C169.947 62.5402 167.292 64.8252 164.06 64.8252C161.982 64.8252 160.158 63.9032 159.096 62.4801V64.6247C159.096 64.6247 159.096 64.6448 159.073 64.6448H158.195C158.172 64.6448 158.172 64.6247 158.172 64.6247V50.6145C158.172 50.5945 158.172 50.5945 158.195 50.5945H159.073C159.096 50.5945 159.096 50.5945 159.096 50.6145V56.9482C160.158 55.5451 161.982 54.6031 164.06 54.6031ZM159.096 59.6941V59.7542C159.119 62.0993 161.335 64.0234 164.06 64.0234C166.784 64.0234 169 62.0792 169 59.7141C169 57.349 166.784 55.4249 164.06 55.4249C161.335 55.4249 159.119 57.329 159.096 59.6941Z" fill="#1E1E1E"/>
<path d="M183.844 54.8035C183.844 54.8035 183.867 54.8035 183.867 54.8236V64.6247L183.844 64.6448H182.943C182.92 64.6448 182.92 64.6247 182.92 64.6247V62.4801C181.858 63.9032 180.034 64.8252 177.979 64.8252C174.724 64.8252 172.092 62.5402 172.092 59.7141C172.092 56.9081 174.724 54.6031 177.979 54.6031C180.034 54.6031 181.858 55.5451 182.92 56.9482V54.8236C182.92 54.8035 182.92 54.8035 182.943 54.8035H183.844ZM182.92 59.7542V59.6941C182.897 57.329 180.681 55.4249 177.979 55.4249C175.232 55.4249 173.016 57.349 173.016 59.7141C173.016 62.0792 175.232 64.0234 177.979 64.0234C180.681 64.0234 182.897 62.0993 182.92 59.7542Z" fill="#1E1E1E"/>
<path d="M193.561 60.2553C194.762 60.7363 195.455 61.4779 195.455 62.2997C195.455 63.7027 193.4 64.8252 190.86 64.8252C188.967 64.8252 187.305 64.2038 186.612 63.2217C186.612 63.2017 186.612 63.2017 186.612 63.2017L187.42 62.881H187.443C187.974 63.5624 189.359 64.0234 190.86 64.0234C192.892 64.0234 194.508 63.2417 194.508 62.2997C194.508 61.8187 194.069 61.3777 193.284 61.037L188.459 59.193C187.258 58.712 186.589 57.9503 186.589 57.1486C186.589 55.7456 188.644 54.6031 191.16 54.6031C193.053 54.6031 194.739 55.2445 195.431 56.2066V56.2266C195.431 56.2266 195.431 56.2466 195.408 56.2466L194.623 56.5673C194.6 56.5673 194.6 56.5673 194.6 56.5473C194.069 55.8859 192.684 55.4249 191.16 55.4249C189.152 55.4249 187.512 56.1865 187.512 57.1486C187.512 57.6296 187.951 58.0706 188.759 58.4113L193.561 60.2553Z" fill="#1E1E1E"/>
<path d="M198.912 54.8035C198.936 54.8035 198.936 54.8035 198.936 54.8236V64.6247C198.936 64.6247 198.936 64.6448 198.912 64.6448H198.035C198.012 64.6448 198.012 64.6247 198.012 64.6247V54.8236C198.012 54.8035 198.012 54.8035 198.035 54.8035H198.912ZM198.474 50.7548C198.936 50.7548 199.305 51.0755 199.305 51.4764C199.305 51.8772 198.936 52.218 198.474 52.218C198.012 52.218 197.643 51.8772 197.643 51.4764C197.643 51.0755 198.012 50.7548 198.474 50.7548Z" fill="#1E1E1E"/>
<path d="M211.003 62.7607L211.626 63.3019C211.626 63.3219 211.626 63.3219 211.626 63.342C210.472 64.3241 208.971 64.8252 207.448 64.8252C205.947 64.8252 204.446 64.3241 203.292 63.342C201.006 61.3376 201.006 58.0906 203.292 56.1063C205.601 54.102 209.318 54.102 211.626 56.1063V56.1264L211.003 56.6876C210.98 56.6876 210.957 56.6876 210.957 56.6876C209.018 55.004 205.901 55.004 203.961 56.6876C202.022 58.3512 202.022 61.0771 203.961 62.7607C205.901 64.4243 209.018 64.4243 210.957 62.7607C210.957 62.7407 210.98 62.7407 211.003 62.7607Z" fill="#1E1E1E"/>
<path d="M214.294 63.362C214.756 63.362 215.126 63.7027 215.126 64.1036C215.126 64.5045 214.756 64.8252 214.294 64.8252C213.833 64.8252 213.463 64.5045 213.463 64.1036C213.463 63.7027 213.833 63.362 214.294 63.362Z" fill="#1E1E1E"/>
</svg>
