<svg width="30" height="30" viewBox="0 0 30 30" fill="none" xmlns="http://www.w3.org/2000/svg">
<path d="M19.9375 18.5625C23.8709 18.5625 27.0625 21.7541 27.0625 25.6875V27.1875C27.0625 28.326 26.1385 29.25 25 29.25H4.375C3.23648 29.25 2.3125 28.326 2.3125 27.1875V25.6875C2.3125 21.7541 5.50406 18.5625 9.4375 18.5625C10.1413 18.5625 10.6379 18.7501 11.4385 18.998C12.2381 19.2457 13.2073 19.5 14.6875 19.5C16.1676 19.5 17.1382 19.2457 17.9385 18.998C18.7403 18.7499 19.2366 18.5625 19.9375 18.5625ZM14.6875 0.75C18.9315 0.75 22.375 4.19351 22.375 8.4375C22.375 12.6815 18.9315 16.125 14.6875 16.125C10.4435 16.125 7 12.6815 7 8.4375C7 4.19351 10.4435 0.75 14.6875 0.75Z" stroke="#1E1E1E" stroke-width="1.5"/>
</svg>
